<svg width="14" height="14" viewBox="0 0 14 14" fill="none" xmlns="http://www.w3.org/2000/svg">
<path fill-rule="evenodd" clip-rule="evenodd" d="M2.75 2.25C2.55109 2.25 2.36032 2.32902 2.21967 2.46967C2.07902 2.61032 2 2.80109 2 3V11.25C2 11.4489 2.07902 11.6397 2.21967 11.7803C2.36032 11.921 2.55109 12 2.75 12H11C11.1989 12 11.3897 11.921 11.5303 11.7803C11.671 11.6397 11.75 11.4489 11.75 11.25V6.75C11.75 6.33579 12.0858 6 12.5 6C12.9142 6 13.25 6.33579 13.25 6.75V11.25C13.25 11.8467 13.0129 12.419 12.591 12.841C12.169 13.2629 11.5967 13.5 11 13.5H2.75C2.15326 13.5 1.58097 13.2629 1.15901 12.841C0.737053 12.419 0.5 11.8467 0.5 11.25V3C0.5 2.40326 0.737053 1.83097 1.15901 1.40901C1.58097 0.987053 2.15326 0.75 2.75 0.75H7.25C7.66421 0.75 8 1.08579 8 1.5C8 1.91421 7.66421 2.25 7.25 2.25H2.75Z" fill="#4643EE"/>
</svg>
